<?xml version="1.0" encoding="utf-8"?>
<!-- Generator: Adobe Illustrator 16.0.0, SVG Export Plug-In . SVG Version: 6.00 Build 0)  -->
<!DOCTYPE svg PUBLIC "-//W3C//DTD SVG 1.1//EN" "http://www.w3.org/Graphics/SVG/1.1/DTD/svg11.dtd">
<svg version="1.1" id="ETH" xmlns="http://www.w3.org/2000/svg" xmlns:xlink="http://www.w3.org/1999/xlink" x="0px" y="0px"
	 width="140.704px" height="22.861px" viewBox="0 0 140.704 22.861" enable-background="new 0 0 140.704 22.861"
	 xml:space="preserve">
<g>
	<g>
		<path fill="#FFFFFF" d="M86.499,16.627c-0.81,4.017-3.913,4.221-4.528,4.221c-1.752,0-2.797-1.012-2.797-2.705
			c0-0.386,0.057-0.912,0.155-1.439l1.919-9.562l0.008-0.037h-2.267l-1.956,9.805l-0.026,0.14c-0.084,0.443-0.163,0.863-0.163,1.408
			c0,2.634,1.73,4.402,4.309,4.402c1.886,0,3.401-0.619,4.507-1.841l-0.294,1.615l-0.007,0.038h2.235l3.088-15.53l0.006-0.037H88.39
			L86.499,16.627z"/>
		<path fill="#FFFFFF" d="M101.954,6.918c-1.752,0-3.304,0.716-4.281,1.974l0.351-1.748l0.007-0.037h-2.235l-3.089,15.529
			l-0.007,0.038h2.269l1.891-9.524c0.483-2.445,2.36-4.218,4.465-4.218c0.904,0,1.616,0.356,2.176,1.087l0.021,0.028l1.841-1.649
			l-0.019-0.023C104.493,7.393,103.383,6.918,101.954,6.918z"/>
		<polygon fill="#FFFFFF" points="64.468,9.082 64.461,9.12 72.197,9.12 61.898,20.765 61.893,20.771 61.504,22.674 72.482,22.674 
			72.873,20.66 64.667,20.66 74.998,9.015 75.002,9.008 75.39,7.107 64.853,7.107 		"/>
		<polygon fill="#FFFFFF" points="105.65,22.636 105.643,22.674 107.91,22.674 111.003,7.107 108.773,7.107 		"/>
		<path fill="#FFFFFF" d="M136.391,6.919c-1.865,0-3.321,0.571-4.44,1.75L133.709,0h-2.268l-4.555,22.676h2.268l1.891-9.525
			c0.811-4.015,3.941-4.218,4.56-4.218c1.733,0,2.769,1.011,2.769,2.704c0,0.384-0.059,0.908-0.158,1.44l-1.924,9.6h2.266
			l1.988-9.809c0.096-0.521,0.159-0.962,0.159-1.547C140.704,8.688,138.968,6.919,136.391,6.919z"/>
		<path fill="#FFFFFF" d="M121.36,6.918c-4.113,0-7,2.897-7.923,7.949c-0.166,0.846-0.224,1.792-0.224,2.397
			c0,3.452,2.096,5.597,5.472,5.597c1.963,0,3.755-0.752,5.181-2.177l0.021-0.021l-1.308-1.595l-0.023-0.028l-0.024,0.027
			c-1.203,1.266-2.281,1.783-3.721,1.783c-1.609,0-3.33-0.958-3.33-3.648c0-0.842,0.1-1.538,0.249-2.322
			c0.243-1.32,0.79-3.164,2.005-4.447c0.966-0.996,2.111-1.5,3.406-1.5c1.352,0,2.197,0.481,3.021,1.715l0.02,0.031l1.664-1.406
			l0.023-0.02l-0.018-0.025C124.714,7.629,123.329,6.918,121.36,6.918z"/>
		<polygon fill="#FFFFFF" points="109.615,2.834 111.887,2.834 112.452,0 110.188,0 		"/>
		<polygon fill="#FFFFFF" points="87.568,2.834 89.841,2.834 90.403,0 88.142,0 		"/>
		<polygon fill="#FFFFFF" points="81.521,2.834 83.794,2.834 84.357,0 82.096,0 		"/>
	</g>
	<g>
		<polygon fill="#FFFFFF" points="51.229,8.787 46.127,8.787 47.919,0 4.554,0 0,22.676 17.29,22.676 18.422,17.008 8.214,17.008 
			8.833,13.89 19.038,13.89 20.065,8.787 9.858,8.787 10.476,5.668 26.656,5.668 23.24,22.676 30.327,22.676 33.743,5.668 
			39.692,5.668 36.277,22.676 43.365,22.676 45.114,13.89 50.214,13.89 48.465,22.676 55.552,22.676 60.108,0 53.021,0 		"/>
	</g>
</g>
</svg>
